HIERARCHY
ROOT Hips
{
	OFFSET -0.001795 -0.223333 0.028219
	CHANNELS 6 Xposition Yposition Zposition Zrotation Yrotation Xrotation 
	JOINT LeftUpLeg
	{
		OFFSET 0.069520 -0.091406 -0.006815
		CHANNELS 3 Zrotation Yrotation Xrotation
		JOINT LeftLeg
		{
			OFFSET 0.034277 -0.375199 -0.004496
			CHANNELS 3 Zrotation Yrotation Xrotation
			JOINT LeftFoot
			{
				OFFSET -0.013596 -0.397961 -0.043693
				CHANNELS 3 Zrotation Yrotation Xrotation
				JOINT LeftToe
				{
					OFFSET 0.026358 -0.055791 0.119288
					CHANNELS 3 Zrotation Yrotation Xrotation
					End Site
					{
						OFFSET 0.000000 0.000000 0.000000
					}
				}
			}
		}
	}
	JOINT RightUpLeg
	{
		OFFSET -0.067670 -0.090522 -0.004320
		CHANNELS 3 Zrotation Yrotation Xrotation
		JOINT RightLeg
		{
			OFFSET -0.038290 -0.382569 -0.008850
			CHANNELS 3 Zrotation Yrotation Xrotation
			JOINT RightFoot
			{
				OFFSET 0.015774 -0.398415 -0.042312
				CHANNELS 3 Zrotation Yrotation Xrotation
				JOINT RightToe
				{
					OFFSET -0.025372 -0.048144 0.123348
					CHANNELS 3 Zrotation Yrotation Xrotation
					End Site
					{
						OFFSET 0.000000 0.000000 0.000000
					}
				}
			}
		}
	}
	JOINT Spine
	{
		OFFSET -0.002533 0.108963 -0.026696
		CHANNELS 3 Zrotation Yrotation Xrotation
		JOINT Spine1
		{
			OFFSET 0.005487 0.135180 0.001092
			CHANNELS 3 Zrotation Yrotation Xrotation
			JOINT Spine2
			{
				OFFSET 0.001457 0.052922 0.025425
				CHANNELS 3 Zrotation Yrotation Xrotation
				JOINT Neck
				{
					OFFSET -0.002778 0.213870 -0.042857
					CHANNELS 3 Zrotation Yrotation Xrotation
					JOINT Head
					{
						OFFSET 0.005152 0.064970 0.051349
						CHANNELS 3 Zrotation Yrotation Xrotation
						End Site
						{
							OFFSET 0.000000 0.000000 0.000000
						}
					}
				}
				JOINT LeftShoulder
				{
					OFFSET 0.078845 0.121749 -0.034090
					CHANNELS 3 Zrotation Yrotation Xrotation
					JOINT LeftArm
					{
						OFFSET 0.090977 0.030469 -0.008868
						CHANNELS 3 Zrotation Yrotation Xrotation
						JOINT LeftForeArm
						{
							OFFSET 0.259612 -0.012772 -0.027456
							CHANNELS 3 Zrotation Yrotation Xrotation
							JOINT LeftHand
							{
								OFFSET 0.249234 0.008986 -0.001171
								CHANNELS 3 Zrotation Yrotation Xrotation
								End Site
								{
									OFFSET 0.000000 0.000000 0.000000
								}
							}
						}
					}
				}
				JOINT RightShoulder
				{
					OFFSET -0.081759 0.118833 -0.038615
					CHANNELS 3 Zrotation Yrotation Xrotation
					JOINT RightArm
					{
						OFFSET -0.096012 0.032551 -0.009143
						CHANNELS 3 Zrotation Yrotation Xrotation
						JOINT RightForeArm
						{
							OFFSET -0.253742 -0.013329 -0.021401
							CHANNELS 3 Zrotation Yrotation Xrotation
							JOINT RightHand
							{
								OFFSET -0.255298 0.007772 -0.005559
								CHANNELS 3 Zrotation Yrotation Xrotation
								End Site
								{
									OFFSET 0.000000 0.000000 0.000000
								}
							}
						}
					}
				}
			}
		}
	}
}
MOTION
Frames: 16
Frame Time: 0.05000000
0.000000 0.831306 0.000000 1.563122 6.144392 19.406434 4.283321 -1.341120 -14.785993 -2.975560 -0.092417 31.885334 7.799093 -4.608173 -40.337188 0.000000 0.000000 0.000000 -12.939217 -0.460337 -54.732371 8.389507 -2.641700 29.930045 -3.100333 -5.335814 -12.917777 0.000000 0.000000 0.000000 -1.407364 0.848222 -22.942527 1.140749 0.007302 -11.400071 -3.108315 -4.502256 33.037260 5.448656 -1.631910 -24.505698 0.000000 0.000000 0.000000 29.119167 3.836129 0.659378 -86.106066 -11.013405 0.439928 -16.330267 -29.523628 5.828561 0.000000 0.000000 0.000000 -27.867921 -5.990503 0.821850 90.296325 6.986158 -2.675858 10.719897 26.876815 3.609378 0.000000 0.000000 0.000000 
0.493874 0.837531 -1.439318 1.205467 1.501126 21.472582 2.975465 -1.595079 -19.351399 -1.894396 -0.186411 28.246988 7.836263 -3.848130 -42.959371 0.000000 0.000000 0.000000 -15.768581 -1.195419 -58.693417 9.477822 -2.368701 24.700314 -2.999043 -8.538396 -2.978177 0.000000 0.000000 0.000000 -1.815242 0.905981 -23.941393 1.618644 -0.211612 -11.282247 -4.198886 -7.526900 33.142560 4.918835 -2.010512 -24.878269 0.000000 0.000000 0.000000 27.701635 3.594813 -0.671550 -85.651735 -11.142796 4.617105 -14.350237 -32.039340 5.832291 0.000000 0.000000 0.000000 -27.184903 -6.519624 1.954536 89.470382 8.663519 -5.448667 13.510500 27.797591 4.441377 0.000000 0.000000 0.000000 
1.076750 0.842447 -2.722924 1.107516 -5.883991 20.584558 0.808723 -1.811733 -21.601588 -2.074506 0.158009 25.472348 6.748750 0.511504 -40.790622 0.000000 0.000000 0.000000 -16.669062 -0.275707 -55.984831 9.879360 -1.880557 21.165546 -3.791049 -10.299665 -5.835639 0.000000 0.000000 0.000000 -2.385392 0.861922 -21.711023 1.171763 -0.096600 -12.586966 -4.375618 -8.228464 33.803870 4.613716 -2.204740 -26.735016 0.000000 0.000000 0.000000 27.496863 3.614191 -1.700710 -84.681855 -10.400351 6.867784 -15.069822 -31.449945 5.873274 0.000000 0.000000 0.000000 -27.071709 -6.648128 2.894016 90.506949 8.284598 -9.628971 18.460131 29.467227 6.032758 0.000000 0.000000 0.000000 
1.663316 0.852178 -3.785623 1.436551 -13.887203 19.075716 -1.117917 -1.910575 -21.078333 -0.996711 0.096939 23.106780 5.540413 1.923837 -39.230325 0.000000 0.000000 0.000000 -18.036731 0.350448 -54.788505 12.356017 -2.426726 24.975967 -5.485494 -15.375116 -8.500967 0.000000 0.000000 0.000000 -2.498310 0.804058 -19.520913 0.903870 -0.124699 -12.073152 -3.941338 -6.895269 33.685456 3.471963 -2.103529 -24.689143 0.000000 0.000000 0.000000 28.696662 2.581952 -2.147393 -84.783263 -10.855589 9.120610 -13.363147 -30.039064 4.974381 0.000000 0.000000 0.000000 -28.298277 -6.027862 3.769964 91.179529 9.567648 -11.090055 19.014652 29.256440 6.112803 0.000000 0.000000 0.000000 
2.236181 0.863396 -4.655843 1.277062 -22.515191 17.253576 -1.753063 -1.880841 -19.561992 -1.649925 0.423509 18.076287 4.274806 6.060774 -35.621637 0.000000 0.000000 0.000000 -17.272538 1.728191 -53.085681 16.125524 -3.444538 33.280168 -7.337494 -21.615104 -10.605817 0.000000 0.000000 0.000000 -2.114840 0.710738 -16.915723 0.298593 -0.034998 -12.114367 -3.252088 -5.459771 33.103249 2.768247 -2.065671 -24.606551 0.000000 0.000000 0.000000 28.621177 2.545464 -2.795992 -85.421759 -10.273284 10.771454 -11.275026 -28.264468 3.985237 0.000000 0.000000 0.000000 -27.525806 -5.858160 4.387937 91.064836 11.110581 -12.362062 19.487518 27.372797 5.730625 0.000000 0.000000 0.000000 
2.798465 0.869946 -5.391141 0.668307 -30.381645 18.451474 -2.261007 -2.208922 -23.658458 -0.719789 0.460845 19.224999 3.209525 6.767565 -33.238053 0.000000 0.000000 0.000000 -15.858119 3.005737 -52.002493 19.032618 -3.996640 41.123647 -7.875043 -23.872855 -11.880804 0.000000 0.000000 0.000000 -1.897586 0.775395 -18.092582 0.495172 -0.205569 -11.549623 -2.969114 -5.265734 32.545742 3.076008 -2.594336 -24.940530 0.000000 0.000000 0.000000 29.022395 2.364948 -3.514710 -86.100698 -8.760528 12.351595 -12.630699 -28.047462 4.144168 0.000000 0.000000 0.000000 -27.419484 -6.031850 5.208284 90.025497 12.344147 -14.043404 20.479808 25.045939 5.341194 0.000000 0.000000 0.000000 
3.371351 0.875104 -6.042116 0.601238 -38.032887 20.538361 -2.244820 -2.339691 -27.845100 -0.340884 0.520628 18.256126 2.449602 8.644248 -30.113688 0.000000 0.000000 0.000000 -15.084221 3.755199 -50.097779 21.887605 -4.228313 47.428337 -8.767699 -28.479403 -12.153964 0.000000 0.000000 0.000000 -1.883583 0.956182 -20.970359 0.528797 -0.284140 -11.958295 -3.008850 -5.220657 33.116445 3.373670 -3.173112 -24.987050 0.000000 0.000000 0.000000 30.052648 2.026775 -4.329937 -87.634416 -6.371115 13.748795 -12.265711 -28.202925 3.902181 0.000000 0.000000 0.000000 -28.133836 -6.315906 6.162256 89.619782 12.997563 -16.530883 22.515507 23.798753 5.474937 0.000000 0.000000 0.000000 
3.970099 0.877488 -6.620261 1.076994 -44.989201 22.798442 -2.789997 -2.326877 -33.743999 0.352075 0.573710 19.017173 1.964910 8.951789 -26.271492 0.000000 0.000000 0.000000 -14.115004 3.928671 -45.331632 23.342275 -3.432473 48.947892 -8.966368 -28.773979 -16.734455 0.000000 0.000000 0.000000 -3.062776 1.199921 -24.215379 0.621977 -0.370742 -11.956607 -3.083510 -6.054349 33.090467 3.102925 -3.342785 -26.439779 0.000000 0.000000 0.000000 31.118515 2.527846 -5.251331 -88.043379 -4.362537 15.373273 -12.309355 -28.052813 3.752168 0.000000 0.000000 0.000000 -28.767543 -7.262427 7.104620 89.674172 12.899687 -19.840785 25.452915 21.337341 5.415835 0.000000 0.000000 0.000000 
4.597729 0.877064 -7.153941 1.848982 -52.034272 25.649178 -3.271355 -1.928934 -39.739086 0.183487 0.852085 19.119160 1.370868 7.606842 -22.852343 0.000000 0.000000 0.000000 -12.239218 4.061519 -41.733536 21.927908 -1.383053 48.274982 -9.461431 -27.398720 -18.788675 0.000000 0.000000 0.000000 -3.495729 1.614281 -28.253323 0.414969 -0.363017 -11.858430 -3.027894 -5.415756 33.522729 3.018844 -3.524468 -26.946768 0.000000 0.000000 0.000000 31.058211 2.748272 -5.857831 -87.964057 -4.280091 17.282240 -10.948717 -27.416456 3.273138 0.000000 0.000000 0.000000 -29.181664 -8.359208 7.680045 89.700875 12.412188 -22.312667 27.047277 21.030714 5.621748 0.000000 0.000000 0.000000 
5.265792 0.876128 -7.651195 2.467092 -59.846695 29.749006 -3.907683 -0.840173 -46.949388 0.045187 0.965378 18.079056 1.300135 6.832944 -17.251008 0.000000 0.000000 0.000000 -11.040851 4.186893 -39.970972 19.303833 0.502369 41.576701 -11.238538 -28.547784 -19.231136 0.000000 0.000000 0.000000 -3.917800 2.372886 -33.282075 0.295641 -0.374156 -11.985459 -3.126200 -4.374827 33.996417 3.063044 -3.763741 -27.470245 0.000000 0.000000 0.000000 31.532746 2.840801 -6.461640 -88.101156 -3.015348 18.251185 -9.811599 -28.085401 3.080512 0.000000 0.000000 0.000000 -28.984033 -9.076340 8.119133 88.681695 11.786892 -24.192246 29.396098 19.416240 5.496385 0.000000 0.000000 0.000000 
5.991764 0.874472 -8.126220 3.549861 -68.691108 31.353573 -5.361979 0.624134 -52.104764 0.175495 1.217598 18.478151 1.412549 6.404750 -13.886564 0.000000 0.000000 0.000000 -9.801478 4.238508 -38.041728 13.769501 2.075897 34.230051 -13.423544 -24.575928 -19.378293 0.000000 0.000000 0.000000 -4.315597 3.182395 -36.107895 -0.105295 -0.321259 -11.929519 -2.605251 -3.195869 34.011690 2.852355 -3.970317 -27.529315 0.000000 0.000000 0.000000 31.566280 2.931125 -7.134481 -88.774072 -1.776434 19.609013 -8.397139 -28.145757 2.627915 0.000000 0.000000 0.000000 -29.168530 -8.984375 8.869823 88.178943 12.617143 -25.717149 31.786036 18.509787 5.548393 0.000000 0.000000 0.000000 
6.806707 0.872264 -8.578065 7.664811 -76.864540 28.591954 -8.147799 2.343509 -57.567099 2.294022 0.875210 20.363069 1.119350 3.636603 -9.303836 0.000000 0.000000 0.000000 -9.343864 4.372505 -36.991240 10.328224 2.270368 27.192389 -16.396117 -23.883230 -20.574894 0.000000 0.000000 0.000000 -5.051652 3.785092 -36.773671 -0.027345 -0.404871 -11.332738 -2.352540 -2.435654 33.939625 2.655336 -4.268426 -26.788185 0.000000 0.000000 0.000000 30.745268 2.719011 -7.743060 -88.610206 -1.506353 20.983350 -7.082103 -27.829086 2.220399 0.000000 0.000000 0.000000 -28.648360 -8.595210 9.448089 86.813104 14.512980 -26.062425 32.776918 18.228936 5.355429 0.000000 0.000000 0.000000 
7.728972 0.870049 -8.992702 19.029684 -84.214388 18.668655 -11.030796 4.731713 -63.567080 3.882392 0.784719 23.238489 -0.219189 -0.765947 -5.940651 0.000000 0.000000 0.000000 -9.367050 4.781783 -37.380126 7.989382 2.014388 20.774609 -19.109723 -23.552573 -20.648523 0.000000 0.000000 0.000000 -5.452648 4.368375 -36.836166 -0.222342 -0.389501 -11.018931 -2.407347 -2.669691 34.188486 2.173379 -4.516840 -26.338324 0.000000 0.000000 0.000000 30.137175 2.248195 -8.458248 -87.831186 -1.578828 22.921107 -5.196654 -27.523057 1.693585 0.000000 0.000000 0.000000 -28.549896 -7.900366 10.367296 86.507265 17.059849 -27.240104 32.949187 17.244717 4.848442 0.000000 0.000000 0.000000 
8.731366 0.868601 -9.347321 135.573813 -87.309764 -96.040031 -16.539416 6.578480 -70.181163 7.599599 -0.683994 23.867638 -3.461946 -7.409922 -1.153995 0.000000 0.000000 0.000000 -8.533600 5.621072 -38.765912 6.545987 1.851625 15.733791 -21.178902 -22.768606 -20.191177 0.000000 0.000000 0.000000 -6.932213 5.233810 -37.385188 0.120456 -0.500552 -10.927077 -2.696348 -4.123978 34.560286 1.881449 -4.882509 -25.899335 0.000000 0.000000 0.000000 29.945606 2.068482 -9.299322 -86.754768 -0.473514 24.214470 -4.384266 -28.312366 1.539636 0.000000 0.000000 0.000000 -28.540560 -7.209664 11.394565 85.452888 20.209897 -28.217507 32.288809 15.260489 3.835468 0.000000 0.000000 0.000000 
9.742796 0.866750 -9.612632 166.937420 -82.085890 -126.936120 -20.400529 8.100321 -74.406144 9.447329 -1.451393 23.595630 -5.513618 -10.024269 2.985480 0.000000 0.000000 0.000000 -8.558719 6.340855 -39.735328 7.251558 1.992125 12.627390 -22.800569 -23.782778 -18.984426 0.000000 0.000000 0.000000 -6.952081 5.727034 -36.800948 0.413899 -0.567648 -10.445460 -2.939571 -4.620681 34.823375 1.722965 -5.144040 -25.840374 0.000000 0.000000 0.000000 29.334759 1.609602 -9.727572 -86.165422 -0.766019 25.943471 -3.249254 -28.935704 1.289641 0.000000 0.000000 0.000000 -28.467563 -6.929037 12.056294 85.327842 22.925664 -29.081670 30.504986 12.573066 2.708845 0.000000 0.000000 0.000000 
10.689487 0.867362 -9.774976 171.890706 -77.114599 -131.226714 -26.015110 8.693699 -79.392394 11.654992 -2.590068 21.103870 -7.980051 -11.741035 9.442989 0.000000 0.000000 0.000000 -8.640571 7.844997 -42.467759 8.291052 2.378909 11.496828 -23.836009 -27.096296 -16.559271 0.000000 0.000000 0.000000 -7.454865 6.238844 -36.176931 0.649747 -0.615139 -10.645249 -3.241287 -5.860881 35.036189 0.576648 -4.982459 -24.217893 0.000000 0.000000 0.000000 28.943218 1.576022 -10.190781 -85.519330 -1.104308 27.946421 -2.476799 -29.680594 1.150241 0.000000 0.000000 0.000000 -27.795847 -7.154521 12.297806 84.650071 23.664621 -30.811663 31.530902 10.033633 1.719634 0.000000 0.000000 0.000000 
